# xmcd
#
# Track frame offsets: 
#        150
#        17879
#        43228
#        56605
#        75955
#        110557
#        130695
#        142462
#        164166
#        186831
#        201513
#        231650
#        261975
#
# Disc length: 3652 seconds
#
# Revision: 5
# Processed by: cddbd v1.5.2PL0 Copyright (c) Steve Scherf et al.
# Submitted via: ExactAudioCopyFreeDBPlugin 1.0
#
DISCID=cd0e420d
DTITLE=Aretha Franklin - Live at Fillmore West
DYEAR=2006
DGENRE=Soul
TTITLE0=Respect
TTITLE1=Call Me
TTITLE2=Mixed-Up Girl
TTITLE3=Love the One You're With
TTITLE4=Bridge Over Troubled Water
TTITLE5=Share Your Love with Me
TTITLE6=Eleanor Rigby
TTITLE7=Make it with You
TTITLE8=You're All I Need to Get By
TTITLE9=Don't Play That Song
TTITLE10=Dr. Feelgood
TTITLE11=Spirit in the Dark
TTITLE12=Spirit in the Dark (Reprise)
EXTD=
EXTT0=
EXTT1=
EXTT2=
EXTT3=
EXTT4=
EXTT5=
EXTT6=
EXTT7=
EXTT8=
EXTT9=
EXTT10=
EXTT11=
EXTT12=
PLAYORDER=
